<svg width="83" height="39" viewBox="0 0 83 39" fill="none" xmlns="http://www.w3.org/2000/svg">
<path d="M27 29.5C26.6333 31 26.0333 32.3333 25.2 33.5C24.4 34.6333 23.4167 35.6 22.25 36.4C21.1167 37.2 19.8333 37.8 18.4 38.2C17 38.6 15.5167 38.8 13.95 38.8C9.65001 38.8 6.30001 37.2833 3.90001 34.25C1.53334 31.2167 0.350006 26.6333 0.350006 20.5C0.350006 18.2333 0.550006 15.9167 0.950006 13.55C1.35001 11.1833 2.05001 9.03334 3.05001 7.1C4.05001 5.16667 5.38334 3.58333 7.05001 2.35C8.75001 1.11667 10.8833 0.5 13.45 0.5C14.6833 0.5 15.8833 0.666668 17.05 1C18.2167 1.3 19.2333 1.78334 20.1 2.45C21 3.08333 21.7167 3.9 22.25 4.9C22.7833 5.9 23.05 7.06667 23.05 8.4C23.05 9.4 22.85 10.2167 22.45 10.85C22.0833 11.4833 21.3833 11.8 20.35 11.8C19.95 11.8 19.4667 11.7333 18.9 11.6C18.3667 11.4333 17.8 11.0667 17.2 10.5C17.6333 10.2333 17.9833 9.75 18.25 9.05C18.5167 8.31667 18.65 7.6 18.65 6.9C18.65 5.83333 18.3333 4.9 17.7 4.1C17.0667 3.26667 16.2167 2.85 15.15 2.85C14.0167 2.85 13.0333 3.33334 12.2 4.3C11.3667 5.26667 10.6667 6.55 10.1 8.15C9.56667 9.71667 9.16667 11.5167 8.90001 13.55C8.63334 15.55 8.50001 17.6 8.50001 19.7C8.50001 22.4667 8.71667 24.7833 9.15001 26.65C9.61667 28.5167 10.2333 30.0167 11 31.15C11.7667 32.2833 12.6667 33.0833 13.7 33.55C14.7667 34.0167 15.9 34.25 17.1 34.25C19 34.25 20.7 33.7833 22.2 32.85C23.7333 31.8833 24.9167 30.6 25.75 29L27 29.5Z" fill="#696CFF"/>
<path d="M46.0442 6.8C46.0442 8.06667 45.7608 9.1 45.1941 9.9C44.6608 10.6667 43.8775 11.05 42.8442 11.05C41.9108 11.05 41.0775 10.7 40.3441 10C40.8108 9.66667 41.1608 9.18333 41.3941 8.55C41.6608 7.91667 41.7941 7.26667 41.7941 6.6C41.7941 5.56667 41.4608 4.71667 40.7941 4.05C40.1275 3.38333 39.1108 3.05 37.7441 3.05C36.2441 3.05 35.1608 3.46667 34.4941 4.3C33.8275 5.13333 33.4941 6.25 33.4941 7.65C33.4941 9.28333 33.8775 10.6167 34.6441 11.65C35.4441 12.6833 36.4275 13.6167 37.5941 14.45C38.7608 15.25 40.0108 16.0167 41.3442 16.75C42.7108 17.4833 43.9775 18.35 45.1441 19.35C46.3108 20.35 47.2775 21.5667 48.0441 23C48.8441 24.4 49.2442 26.2 49.2442 28.4C49.2442 30.2667 48.9275 31.8667 48.2942 33.2C47.6942 34.5333 46.8608 35.6333 45.7942 36.5C44.7275 37.3333 43.4608 37.9333 41.9941 38.3C40.5275 38.7 38.9275 38.9 37.1941 38.9C35.6608 38.9 34.1441 38.7333 32.6441 38.4C31.1775 38.1 29.8608 37.6 28.6941 36.9C27.5608 36.1667 26.6441 35.2167 25.9441 34.05C25.2441 32.85 24.8941 31.4 24.8941 29.7C24.8941 28.5667 25.0441 27.5333 25.3441 26.6C25.6775 25.6667 26.1108 24.8833 26.6441 24.25C27.2108 23.6167 27.8608 23.1333 28.5941 22.8C29.3275 22.4333 30.0941 22.25 30.8941 22.25C31.2941 22.25 31.7275 22.3 32.1941 22.4C32.6608 22.5 33.1275 22.6833 33.5942 22.95C34.0608 23.1833 34.4941 23.5167 34.8941 23.95C35.2941 24.3833 35.6108 24.9167 35.8441 25.55C35.2441 25.55 34.6441 25.6167 34.0441 25.75C33.4441 25.8833 32.8941 26.1167 32.3941 26.45C31.9275 26.7833 31.5441 27.25 31.2441 27.85C30.9441 28.4167 30.7941 29.15 30.7941 30.05C30.7941 31.7833 31.3275 33.0333 32.3941 33.8C33.4608 34.5333 34.7941 34.9 36.3941 34.9C37.9942 34.9 39.2275 34.5167 40.0942 33.75C40.9608 32.9833 41.3941 31.6667 41.3941 29.8C41.3941 28.0667 41.0275 26.6 40.2941 25.4C39.5941 24.2 38.6941 23.15 37.5941 22.25C36.4941 21.35 35.3108 20.5167 34.0441 19.75C32.8108 18.95 31.6441 18.1 30.5441 17.2C29.4441 16.2667 28.5275 15.1833 27.7941 13.95C27.0941 12.7167 26.7441 11.2 26.7441 9.4C26.7441 6.5 27.7108 4.3 29.6441 2.8C31.5775 1.26667 34.2108 0.5 37.5441 0.5C38.0108 0.5 38.7108 0.55 39.6441 0.650001C40.6108 0.716666 41.5608 0.966667 42.4941 1.4C43.4608 1.8 44.2941 2.43333 44.9941 3.3C45.6941 4.13333 46.0442 5.3 46.0442 6.8Z" fill="#696CFF"/>
<path d="M68.3801 5.2C67.6801 5.66667 67.0634 6.53334 66.5301 7.8C66.0301 9.06667 65.5968 10.5167 65.2301 12.15C64.8968 13.7833 64.6468 15.5 64.4801 17.3C64.3134 19.1 64.2301 20.8 64.2301 22.4C64.2301 24.8 64.3968 26.75 64.7301 28.25C65.0968 29.75 65.5301 30.9167 66.0301 31.75C66.5634 32.5833 67.1134 33.15 67.6801 33.45C68.2801 33.7167 68.8134 33.85 69.2801 33.85C70.2801 33.85 71.1468 33.4 71.8801 32.5C72.6468 31.5667 73.2801 30.3333 73.7801 28.8C74.3134 27.2667 74.6968 25.5167 74.9301 23.55C75.1968 21.55 75.3301 19.4833 75.3301 17.35C75.3301 14.3167 75.0801 11.85 74.5801 9.95C74.1134 8.05 73.4634 6.56667 72.6301 5.5C71.7968 4.43333 70.8134 3.71667 69.6801 3.35C68.5801 2.98333 67.4134 2.8 66.1801 2.8C64.5801 2.8 63.0634 3.05 61.6301 3.55C60.1968 4.01667 58.9468 4.71667 57.8801 5.65C56.8134 6.58334 55.9634 7.73334 55.3301 9.1C54.7301 10.4667 54.4301 12.0167 54.4301 13.75C54.4301 14.9833 54.5634 15.9333 54.8301 16.6C55.0968 17.2333 55.4134 17.8167 55.7801 18.35C53.8801 18.35 52.3801 17.9333 51.2801 17.1C50.2134 16.2333 49.6801 14.8667 49.6801 13C49.6801 11.3 50.1301 9.7 51.0301 8.2C51.9634 6.66667 53.2134 5.33333 54.7801 4.2C56.3468 3.06667 58.1801 2.16667 60.2801 1.5C62.4134 0.833334 64.6801 0.5 67.0801 0.5C69.9801 0.5 72.4134 0.983334 74.3801 1.95C76.3468 2.91667 77.9134 4.23334 79.0801 5.9C80.2468 7.56667 81.0801 9.5 81.5801 11.7C82.0801 13.9 82.3301 16.2167 82.3301 18.65C82.3301 20.1167 82.2468 21.6167 82.0801 23.15C81.9134 24.6833 81.6134 26.1833 81.1801 27.65C80.7801 29.0833 80.2468 30.45 79.5801 31.75C78.9134 33.05 78.0801 34.1833 77.0801 35.15C76.0801 36.1167 74.8968 36.8833 73.5301 37.45C72.1634 38.0167 70.5968 38.3 68.8301 38.3C67.2301 38.3 65.6968 38.0333 64.2301 37.5C62.7968 36.9667 61.5134 36.0833 60.3801 34.85C59.2801 33.6167 58.3968 32 57.7301 30C57.0968 27.9667 56.7801 25.45 56.7801 22.45C56.7801 20.65 56.9134 18.7167 57.1801 16.65C57.4801 14.5833 57.9801 12.6833 58.6801 10.95C59.3801 9.18333 60.3134 7.71667 61.4801 6.55C62.6468 5.38333 64.0968 4.8 65.8301 4.8C66.1968 4.8 66.5968 4.83333 67.0301 4.9C67.4634 4.93334 67.9134 5.03334 68.3801 5.2Z" fill="#696CFF"/>
</svg>
