<svg width="200" height="200" viewBox="0 0 200 200" fill="none" xmlns="http://www.w3.org/2000/svg">
<rect width="200" height="200" rx="20" fill="#696CFF"/>
<path d="M77.96 114.557C77.3964 116.862 76.4742 118.911 75.1934 120.703C73.9639 122.444 72.4525 123.93 70.6594 125.159C68.9175 126.388 66.9451 127.31 64.7421 127.924C62.5904 128.539 60.3105 128.846 57.9026 128.846C51.2937 128.846 46.1449 126.516 42.4562 121.855C38.8187 117.195 37 110.153 37 100.729C37 97.2465 37.3074 93.6871 37.9222 90.0508C38.537 86.4145 39.6128 83.1111 41.1498 80.1406C42.6867 77.1701 44.736 74.7374 47.2976 72.8424C49.9105 70.9475 53.1893 70 57.1342 70C59.0297 70 60.8741 70.2561 62.6672 70.7682C64.4603 71.2292 66.0229 71.9718 67.3549 72.9961C68.7382 73.9692 69.8397 75.224 70.6594 76.7604C71.4791 78.2969 71.889 80.0894 71.889 82.138C71.889 83.6745 71.5816 84.9293 70.9668 85.9023C70.4032 86.8754 69.3274 87.362 67.7392 87.362C67.1244 87.362 66.3815 87.2595 65.5106 87.0547C64.6909 86.7986 63.8199 86.2352 62.8978 85.3646C63.5638 84.9549 64.1017 84.2122 64.5116 83.1367C64.9214 82.01 65.1263 80.9089 65.1263 79.8333C65.1263 78.1944 64.6396 76.7604 63.6662 75.5313C62.6928 74.2509 61.3864 73.6107 59.747 73.6107C58.0051 73.6107 56.4938 74.3533 55.213 75.8385C53.9322 77.3238 52.8563 79.2956 51.9853 81.7539C51.1656 84.161 50.5509 86.9267 50.141 90.0508C49.7311 93.1237 49.5262 96.2734 49.5262 99.5C49.5262 103.751 49.8592 107.31 50.5252 110.178C51.2425 113.046 52.1903 115.351 53.3686 117.092C54.5469 118.834 55.9302 120.063 57.5184 120.78C59.1578 121.497 60.8997 121.855 62.7441 121.855C65.6643 121.855 68.2771 121.138 70.5825 119.704C72.9392 118.219 74.758 116.247 76.0388 113.789L77.96 114.557Z" fill="white"/>
<path d="M107.23 79.6797C107.23 81.6259 106.795 83.2135 105.924 84.4427C105.104 85.6207 103.9 86.2096 102.312 86.2096C100.877 86.2096 99.5964 85.6719 98.4693 84.5964C99.1866 84.0842 99.7245 83.3416 100.083 82.3685C100.493 81.3954 100.698 80.3967 100.698 79.3724C100.698 77.7847 100.186 76.4787 99.161 75.4544C98.1363 74.4301 96.5738 73.918 94.4733 73.918C92.1678 73.918 90.5028 74.5582 89.4781 75.8385C88.4535 77.1189 87.9412 78.8346 87.9412 80.9857C87.9412 83.4952 88.5303 85.5438 89.7087 87.1315C90.9382 88.7192 92.4496 90.1532 94.2427 91.4336C96.0358 92.6628 97.957 93.8407 100.006 94.9675C102.107 96.0942 104.054 97.4258 105.847 98.9622C107.64 100.499 109.126 102.368 110.304 104.57C111.533 106.721 112.148 109.487 112.148 112.867C112.148 115.735 111.662 118.194 110.688 120.242C109.766 122.291 108.485 123.981 106.846 125.312C105.206 126.593 103.26 127.515 101.005 128.078C98.7511 128.693 96.292 129 93.6279 129C91.2713 129 88.9402 128.744 86.6348 128.232C84.3806 127.771 82.3569 127.003 80.5638 125.927C78.8219 124.8 77.413 123.341 76.3371 121.548C75.2613 119.704 74.7233 117.477 74.7233 114.865C74.7233 113.123 74.9539 111.536 75.415 110.102C75.9273 108.668 76.5933 107.464 77.413 106.491C78.284 105.518 79.283 104.775 80.4101 104.263C81.5372 103.7 82.7155 103.418 83.9451 103.418C84.5599 103.418 85.2259 103.495 85.9431 103.648C86.6604 103.802 87.3776 104.084 88.0949 104.493C88.8121 104.852 89.4781 105.364 90.0929 106.03C90.7077 106.696 91.1944 107.515 91.553 108.488C90.6309 108.488 89.7087 108.591 88.7865 108.796C87.8643 109 87.019 109.359 86.2505 109.871C85.5333 110.383 84.9441 111.1 84.483 112.022C84.0219 112.893 83.7914 114.02 83.7914 115.402C83.7914 118.066 84.6111 119.986 86.2505 121.164C87.8899 122.291 89.9392 122.854 92.3984 122.854C94.8575 122.854 96.7531 122.265 98.0851 121.087C99.4171 119.909 100.083 117.886 100.083 115.018C100.083 112.355 99.5196 110.102 98.3925 108.258C97.3166 106.414 95.9334 104.801 94.2427 103.418C92.5521 102.035 90.7333 100.755 88.7865 99.5768C86.8909 98.3477 85.0978 97.0417 83.4071 95.6589C81.7165 94.2248 80.3076 92.5603 79.1805 90.6654C78.1046 88.7704 77.5667 86.4401 77.5667 83.6745C77.5667 79.2187 79.0524 75.8385 82.0239 73.5339C84.9953 71.178 89.0427 70 94.1659 70C94.8831 70 95.959 70.0768 97.3935 70.2305C98.8792 70.3329 100.339 70.717 101.774 71.3828C103.26 71.9974 104.54 72.9705 105.616 74.3021C106.692 75.5825 107.23 77.375 107.23 79.6797Z" fill="white"/>
<path d="M141.559 77.2214C140.484 77.9384 139.536 79.27 138.716 81.2161C137.948 83.1623 137.282 85.3902 136.718 87.8997C136.206 90.4093 135.821 93.0469 135.565 95.8125C135.309 98.5781 135.181 101.19 135.181 103.648C135.181 107.336 135.437 110.332 135.95 112.637C136.513 114.941 137.179 116.734 137.948 118.014C138.767 119.295 139.613 120.165 140.484 120.626C141.406 121.036 142.225 121.241 142.943 121.241C144.48 121.241 145.812 120.549 146.939 119.167C148.117 117.733 149.091 115.838 149.859 113.482C150.679 111.126 151.268 108.437 151.626 105.415C152.036 102.342 152.241 99.1671 152.241 95.8893C152.241 91.2287 151.857 87.4388 151.089 84.5195C150.371 81.6003 149.372 79.3212 148.092 77.6823C146.811 76.0434 145.299 74.9423 143.557 74.3789C141.867 73.8155 140.074 73.5339 138.178 73.5339C135.719 73.5339 133.388 73.918 131.185 74.6862C128.982 75.4032 127.061 76.4787 125.421 77.9128C123.782 79.3468 122.476 81.1137 121.502 83.2135C120.58 85.3134 120.119 87.6949 120.119 90.3581C120.119 92.253 120.324 93.7127 120.734 94.737C121.143 95.7101 121.63 96.6063 122.194 97.4258C119.274 97.4258 116.968 96.7856 115.277 95.5052C113.638 94.1736 112.818 92.0738 112.818 89.2057C112.818 86.5938 113.51 84.1354 114.893 81.8307C116.328 79.4748 118.249 77.4262 120.657 75.6849C123.065 73.9436 125.882 72.5608 129.11 71.5365C132.389 70.5122 135.873 70 139.561 70C144.019 70 147.758 70.7426 150.781 72.2279C153.804 73.7131 156.212 75.7361 158.005 78.2969C159.798 80.8576 161.079 83.8281 161.847 87.2083C162.616 90.5885 163 94.148 163 97.8867C163 100.14 162.872 102.445 162.616 104.801C162.36 107.157 161.899 109.461 161.232 111.715C160.618 113.917 159.798 116.017 158.773 118.014C157.749 120.012 156.468 121.753 154.931 123.238C153.394 124.724 151.575 125.901 149.475 126.772C147.374 127.643 144.966 128.078 142.251 128.078C139.792 128.078 137.435 127.668 135.181 126.849C132.978 126.03 131.006 124.672 129.264 122.777C127.573 120.882 126.215 118.398 125.191 115.326C124.217 112.201 123.731 108.335 123.731 103.725C123.731 100.96 123.936 97.9891 124.345 94.8138C124.807 91.6385 125.575 88.7192 126.651 86.056C127.727 83.3416 129.161 81.0881 130.954 79.2956C132.748 77.503 134.976 76.6068 137.64 76.6068C138.204 76.6068 138.819 76.658 139.485 76.7604C140.151 76.8116 140.842 76.9653 141.559 77.2214Z" fill="white"/>
</svg>
