<svg width="419" height="419" viewBox="0 0 419 419" fill="none" xmlns="http://www.w3.org/2000/svg">
<rect width="419" height="419" rx="40" fill="#FCF7F7"/>
<path d="M325.229 266C325.362 266.8 325.429 267.6 325.429 268.4C325.562 269.067 325.629 269.867 325.629 270.8C325.629 272.4 325.162 273.867 324.229 275.2C323.829 275.867 323.296 276.533 322.629 277.2C321.962 277.733 321.162 278.2 320.229 278.6C316.896 280.467 313.362 281.133 309.629 280.6C307.762 280.067 306.096 279.2 304.629 278C304.362 277.733 304.162 277.6 304.029 277.6C303.896 277.467 303.762 277.267 303.629 277C303.496 276.867 303.362 276.733 303.229 276.6C303.096 276.333 302.896 276.133 302.629 276C301.962 275.333 301.429 274.733 301.029 274.2C300.629 273.533 300.229 272.867 299.829 272.2C299.562 271.533 299.229 270.933 298.829 270.4C298.562 269.733 298.229 269.067 297.829 268.4C297.562 267.867 297.296 267.4 297.029 267C296.762 266.467 296.562 265.933 296.429 265.4C295.896 264.2 295.562 263.133 295.429 262.2L291.229 252.4C282.029 252.4 272.829 252.467 263.629 252.6C254.562 252.6 245.429 252.533 236.229 252.4L232.029 262.2C231.762 262.733 231.562 263.267 231.429 263.8C231.429 264.333 231.296 264.867 231.029 265.4C230.762 265.933 230.496 266.467 230.229 267C230.096 267.4 229.896 267.867 229.629 268.4C229.229 269.067 228.829 269.733 228.429 270.4C228.162 270.933 227.829 271.533 227.429 272.2C227.162 272.867 226.829 273.533 226.429 274.2C226.029 274.733 225.496 275.333 224.829 276C224.562 276.133 224.362 276.333 224.229 276.6C224.096 276.733 223.962 276.867 223.829 277C223.696 277.267 223.562 277.467 223.429 277.6C223.296 277.6 223.096 277.733 222.829 278C221.362 279.2 219.696 280.067 217.829 280.6C214.096 281.133 210.562 280.467 207.229 278.6C206.296 278.2 205.496 277.733 204.829 277.2C204.162 276.533 203.629 275.867 203.229 275.2C202.296 273.867 201.829 272.4 201.829 270.8C201.829 269.867 201.829 269.067 201.829 268.4C201.962 267.6 202.096 266.8 202.229 266C202.496 264.8 202.829 263.6 203.229 262.4C203.629 261.2 203.829 260.6 203.829 260.6L245.429 158.2L246.629 155C246.896 154.2 247.229 153.467 247.629 152.8C248.029 152.133 248.362 151.333 248.629 150.4C249.296 148.667 250.029 147.133 250.829 145.8C251.229 145 251.696 144.267 252.229 143.6C252.762 142.933 253.296 142.267 253.829 141.6C254.629 140.533 255.762 139.667 257.229 139C259.096 138.333 261.229 138 263.629 138C266.162 138 268.362 138.333 270.229 139C271.696 139.667 272.829 140.533 273.629 141.6C274.562 142.8 275.562 144.2 276.629 145.8C277.429 147.133 278.162 148.667 278.829 150.4C279.096 151.333 279.429 152.133 279.829 152.8C280.229 153.467 280.562 154.2 280.829 155L282.029 158.2L323.629 260.6C323.629 260.6 323.829 261.2 324.229 262.4C324.629 263.6 324.962 264.8 325.229 266ZM277.829 217C276.096 213.133 274.296 209.133 272.429 205C270.696 200.867 268.829 196.667 266.829 192.4C266.296 191.2 265.762 190 265.229 188.8C264.696 187.467 264.162 186.2 263.629 185C263.229 186.2 262.762 187.467 262.229 188.8C261.696 190 261.162 191.2 260.629 192.4C258.629 196.667 256.696 200.867 254.829 205C253.096 209.133 251.362 213.133 249.629 217L246.029 225.8H281.429L277.829 217Z" fill="#F41616"/>
<path d="M185.44 264.4C185.707 265.066 185.84 266.066 185.84 267.4C185.84 268.6 185.84 269.6 185.84 270.4C185.84 271.466 185.64 272.466 185.24 273.4C184.84 274.333 184.307 275.2 183.64 276C182.44 277.6 180.707 278.8 178.44 279.6C175.24 280.666 172.24 281.2 169.44 281.2C167.973 281.333 166.44 281.4 164.84 281.4C163.24 281.4 161.64 281.533 160.04 281.8H159.24C148.973 281.933 138.373 281.933 127.44 281.8C124.773 281.666 121.773 281.666 118.44 281.8C115.107 282.066 111.84 282 108.64 281.6C105.44 281.333 102.507 280.6 99.84 279.4C97.3067 278.066 95.5067 276 94.44 273.2C94.1733 272.533 93.9733 271.933 93.84 271.4C93.7067 270.733 93.64 270.066 93.64 269.4C93.1067 264.866 92.9067 260.4 93.04 256C93.1733 251.6 93.24 247.266 93.24 243L93.64 214V187.2C93.64 182.4 93.64 178.133 93.64 174.4C93.7733 170.666 93.9067 166.533 94.04 162V161C94.1733 159.666 94.24 158.333 94.24 157C94.3733 155.666 94.44 154.333 94.44 153C94.7067 149.933 95.44 147.333 96.64 145.2C97.44 143.2 98.84 141.6 100.84 140.4C102.573 139.2 104.64 138.6 107.04 138.6C107.973 138.6 108.84 138.666 109.64 138.8C110.573 138.8 111.44 138.866 112.24 139C113.04 139.133 113.773 139.4 114.44 139.8C115.24 140.2 116.04 140.733 116.84 141.4C117.64 142.333 118.373 143.466 119.04 144.8C119.573 146.266 119.907 147.733 120.04 149.2C120.173 150.133 120.307 151 120.44 151.8C120.573 152.6 120.64 153.4 120.64 154.2C120.373 155 120.24 155.8 120.24 156.6C120.24 157.4 120.24 158.133 120.24 158.8V162.4L119.44 256.6L159.04 257H168.44C169.24 257 170.107 257.066 171.04 257.2C171.973 257.2 172.907 257.266 173.84 257.4C174.907 257.533 175.84 257.666 176.64 257.8C177.44 257.933 178.24 258.133 179.04 258.4C180.507 258.8 181.707 259.466 182.64 260.4C184.107 261.733 185.04 263.066 185.44 264.4Z" fill="#F41616"/>
</svg>
